# xmcd CD database file
#
# Track frame offsets:
#	150
#	15058
#	28318
#	42902
#	64017
#	85930
#
# Disc length: 1372 seconds
#
# Revision: 0
# Processed by: cddbd v1.5.1PL0 Copyright (c) Steve Scherf et al.
# Submitted via: CDex 1.51
#
DISCID=3e055a06
DTITLE=The Roys - The Roys
DYEAR=2004
DGENRE=Rock
TTITLE0=Car
TTITLE1=Who Got What Mamma Said
TTITLE2=Till Next Time
TTITLE3=Paid
TTITLE4=Refuel
TTITLE5=Haile Bop
EXTD=YEAR: 2004
EXTT0=
EXTT1=
EXTT2=
EXTT3=
EXTT4=
EXTT5=
PLAYORDER=
